<svg width="44" height="38" viewBox="0 0 44 38" fill="none" xmlns="http://www.w3.org/2000/svg">
<path d="M11.9778 23.7183C11.1829 22.5583 9.62368 22.253 8.46191 23.0162L11.3052 27.2289C12.4669 26.4658 12.7727 24.8784 11.9778 23.7183Z" fill="#EC1D40"/>
<path d="M7.78951 26.5574C8.5844 27.7174 10.1437 28.0227 11.3054 27.2595L8.46211 23.0468C7.33091 23.8099 7.02518 25.3973 7.78951 26.5574Z" fill="#F98B9D"/>
<path d="M36.2532 23.7183C35.4583 22.5583 33.8991 22.253 32.7373 23.0162L35.5806 27.2289C36.7118 26.4658 37.0175 24.8784 36.2532 23.7183Z" fill="#EC1D40"/>
<path d="M32.0639 26.5574C32.8588 27.7174 34.418 28.0227 35.5797 27.2595L32.7365 23.0468C31.5747 23.8099 31.269 25.3973 32.0639 26.5574Z" fill="#F98B9D"/>
<path d="M40.2578 16.7276L33.5929 14.896L29.5879 9.70635C28.7624 8.6379 27.4478 7.99683 26.1026 7.99683H13.2008C11.7027 7.99683 10.2964 8.76001 9.50145 10.0422L6.41358 14.957L2.86712 16.575C1.64421 17.1245 0.879883 18.315 0.879883 19.6582V22.4973C0.879883 24.39 2.37796 25.9163 4.24291 25.9163H5.61869L5.71041 26.2216C6.10785 27.7785 7.33077 28.9996 8.88999 29.3964C10.0212 29.7017 11.2441 29.5185 12.253 28.9385C12.6505 28.6943 13.0174 28.4195 13.3231 28.0837C13.6288 27.7479 13.8734 27.3511 14.0568 26.9542C14.2708 26.4963 14.3931 25.9774 14.4237 25.4584C14.4237 25.1837 14.4237 24.9089 14.4237 24.6647C14.2097 22.6194 12.5588 20.9709 10.5104 20.7572C9.31801 20.6351 8.15624 20.9709 7.23905 21.7036C6.32186 22.4362 5.74098 23.5047 5.61869 24.6647L5.58811 25.031H4.24291C2.8977 25.031 1.79707 23.871 1.79707 22.4973V19.6582C1.79707 18.6814 2.34738 17.7961 3.234 17.3992L6.90275 15.7202C6.99447 15.6897 7.05561 15.6286 7.08619 15.5676L10.2658 10.5001C10.8772 9.49266 12.0084 8.88212 13.2008 8.88212H26.1331C27.2338 8.88212 28.2427 9.37055 28.9153 10.2253L33.012 15.5676C33.0732 15.6592 33.1955 15.7202 33.2566 15.7202L40.0132 17.6129C41.0833 17.9182 41.8476 18.9256 41.8476 20.0246V22.4973C41.8476 23.871 40.747 25.031 39.3712 25.031H38.5457L38.5152 24.6647C38.3012 22.6194 36.6502 20.9709 34.6018 20.7572C33.4095 20.6351 32.2477 20.9709 31.3305 21.7036C30.4133 22.4362 29.8325 23.5047 29.7102 24.6647L29.6796 25.031H18.2759C17.7867 25.031 17.3587 25.4279 17.3587 25.9468H29.7407L29.8325 26.2521C30.2299 27.809 31.4528 29.0301 33.012 29.4269C34.1432 29.7322 35.3661 29.5491 36.3751 28.969C37.384 28.3585 38.1177 27.4121 38.4234 26.2521L38.5152 25.9468H39.4018C41.2667 25.9468 42.7648 24.4205 42.7648 22.5278V20.0246C42.7342 18.4982 41.7253 17.1245 40.2578 16.7276ZM9.99061 21.5814C11.9473 21.5814 13.5065 23.1689 13.5065 25.0921C13.5065 27.0458 11.9167 28.6027 9.99061 28.6027C8.03395 28.6027 6.44415 27.0153 6.47473 25.0921C6.47473 23.1689 8.06452 21.5814 9.99061 21.5814ZM34.1127 28.6332C33.1649 28.6332 32.2783 28.2669 31.6057 27.5953C30.9331 26.9237 30.5662 26.0384 30.5662 25.1226C30.5662 23.1689 32.156 21.612 34.0821 21.612C36.0388 21.612 37.598 23.1994 37.598 25.1226C37.6285 27.0458 36.0693 28.6332 34.1127 28.6332Z" fill="#EC1D40"/>
<path d="M16.7171 15.5981H10.6942C10.3885 15.5981 10.1745 15.2623 10.3579 14.9876L13.1095 10.378C13.1706 10.2559 13.3235 10.1948 13.4458 10.1948H16.7171C16.9922 10.1948 17.2368 10.439 17.2368 10.7138V15.0792C17.2368 15.3539 17.0228 15.5981 16.7171 15.5981Z" fill="#EC1D40"/>
<path d="M19.2849 15.5981H30.23C30.5357 15.5981 30.7192 15.2623 30.5357 14.9876L27.2339 10.3475C27.1727 10.2559 27.0504 10.1948 26.9281 10.1948H19.2849C19.0709 10.1948 18.918 10.378 18.918 10.5612V15.2013C18.918 15.415 19.1015 15.5981 19.2849 15.5981Z" fill="#EC1D40"/>
<path d="M21.9443 17.8266H19.6819C19.4373 17.8266 19.2539 17.6434 19.2539 17.3992C19.2539 17.155 19.4373 16.9718 19.6819 16.9718H21.9443C22.1889 16.9718 22.3723 17.155 22.3723 17.3992C22.3723 17.6434 22.1889 17.8266 21.9443 17.8266Z" fill="#EC1D40"/>
</svg>
