<svg width="43" height="38" viewBox="0 0 43 38" fill="none" xmlns="http://www.w3.org/2000/svg">
<path d="M38.1518 11.313H5.04688V17.0826H38.1518V11.313Z" fill="#EC1D40"/>
<path d="M36.2992 7.06982H6.66017C5.34554 7.06982 4.2998 8.13828 4.2998 9.48148V28.1947C4.2998 29.5379 5.34554 30.6063 6.66017 30.6063H10.8132C10.8132 30.0874 10.3949 29.6295 9.85711 29.6295H6.66017C5.88334 29.6295 5.2559 28.9884 5.2559 28.1947V9.45095C5.2559 8.65724 5.88334 8.01617 6.66017 8.01617H36.2992C37.076 8.01617 37.7034 8.65724 37.7034 9.45095V28.1641C37.7034 28.9579 37.076 29.5989 36.2992 29.5989H16.6992C16.1913 29.5989 15.7431 30.0263 15.7431 30.5758H36.2693C37.5541 30.5758 38.6297 29.4768 38.6297 28.1641V9.45095C38.6596 8.13828 37.5839 7.06982 36.2992 7.06982Z" fill="#EC1D40"/>
<path d="M16.3705 23.3102H9.19974C8.93084 23.3102 8.72168 23.0966 8.72168 22.8218C8.72168 22.5471 8.93084 22.3334 9.19974 22.3334H16.3705C16.6394 22.3334 16.8486 22.5471 16.8486 22.8218C16.8486 23.066 16.6394 23.3102 16.3705 23.3102Z" fill="#EC1D40"/>
<path d="M18.2229 24.8366H9.19974C8.93084 24.8366 8.72168 24.6229 8.72168 24.3482C8.72168 24.0734 8.93084 23.8597 9.19974 23.8597H18.2229C18.4918 23.8597 18.701 24.0734 18.701 24.3482C18.701 24.6229 18.4918 24.8366 18.2229 24.8366Z" fill="#EC1D40"/>
<path d="M32.9525 26.3936H29.188C28.0825 26.3936 27.1562 25.4473 27.1562 24.3178V23.982C27.1562 22.8525 28.0825 21.9061 29.188 21.9061H32.9525C34.058 21.9061 34.9843 22.8525 34.9843 23.982V24.3178C34.9843 25.4473 34.058 26.3936 32.9525 26.3936Z" fill="#F98B9D"/>
<path d="M33.1623 21.9061H30.8916V26.3631H33.1623C34.1782 26.3631 34.9849 25.5083 34.9849 24.5009V23.7683C34.9849 22.7609 34.1483 21.9061 33.1623 21.9061Z" fill="#EC1D40"/>
</svg>
