<svg width="44" height="38" viewBox="0 0 44 38" fill="none" xmlns="http://www.w3.org/2000/svg">
<path opacity="0.2" d="M17.8257 17.4316C17.8257 17.4316 22.7555 19.0495 24.9665 16.4547C27.1775 13.8294 26.5501 9.86084 26.5501 9.86084C26.5501 9.86084 30.2549 11.9672 27.4763 17.4926C24.6976 23.0181 17.7061 19.4159 17.8257 17.4316Z" fill="#EC1D40"/>
<path d="M25.1756 20.057C27.6854 18.897 29.3884 16.1495 29.0299 13.0663C28.6713 9.98304 26.2213 7.47981 23.2036 7.11348C19.2 6.65557 15.7939 9.86093 15.7939 13.86C15.7939 16.6075 17.4073 18.958 19.7079 20.0265C18.9012 20.2402 18.1244 20.5455 17.4073 20.9423C16.9293 21.2171 16.7799 21.8581 17.1384 22.2855C18.6622 21.2781 20.4847 20.6676 22.4567 20.6676C27.6853 20.6676 31.9579 24.8803 32.2268 30.1615H17.8256C17.8256 30.7416 18.2738 31.1995 18.8414 31.1995H33.2726V30.6805C33.2128 25.613 29.8067 21.3086 25.1756 20.057ZM16.8098 13.8905C16.8098 10.7157 19.3195 8.15141 22.4268 8.15141C25.5341 8.15141 28.0439 10.7157 28.0439 13.8905C28.0439 17.0654 25.5042 19.6296 22.4268 19.6296C19.3195 19.6296 16.8098 17.0654 16.8098 13.8905Z" fill="#EC1D40"/>
<path d="M13.9715 31.352C16.4632 31.352 18.4831 29.2882 18.4831 26.7424C18.4831 24.1966 16.4632 22.1328 13.9715 22.1328C11.4798 22.1328 9.45996 24.1966 9.45996 26.7424C9.45996 29.2882 11.4798 31.352 13.9715 31.352Z" fill="#EC1D40"/>
<path d="M14.5093 27.5666C14.5093 27.414 14.4495 27.2613 14.3599 27.1698C14.2703 27.0477 14.091 26.9561 13.852 26.8645C13.4636 26.7424 13.1648 26.5592 12.9557 26.3761C12.7465 26.1929 12.6569 25.9181 12.6569 25.5823C12.6569 25.2771 12.7465 25.0023 12.9258 24.7886C13.105 24.5749 13.374 24.4528 13.7026 24.4223V23.8118H14.1508V24.4528C14.4794 24.5139 14.7184 24.636 14.8977 24.8802C15.077 25.1244 15.1666 25.4297 15.1666 25.796H14.4794C14.4794 25.5518 14.4197 25.3687 14.33 25.216C14.2404 25.0634 14.091 25.0023 13.9117 25.0023C13.7325 25.0023 13.5831 25.0634 13.4935 25.155C13.4038 25.2465 13.3441 25.3992 13.3441 25.5823C13.3441 25.735 13.4038 25.8876 13.4935 25.9792C13.5831 26.0708 13.7624 26.1929 14.0313 26.2845C14.4197 26.4371 14.7184 26.5897 14.8977 26.7729C15.077 26.9561 15.1965 27.2308 15.1965 27.5666C15.1965 27.9024 15.1069 28.1466 14.8977 28.3603C14.6886 28.5435 14.4197 28.6656 14.091 28.6961V29.2456H13.6428V28.6961C13.3142 28.6656 13.0453 28.5435 12.8063 28.3298C12.5971 28.1161 12.4776 27.8108 12.5075 27.3835H13.1648C13.1648 27.6582 13.2246 27.8414 13.3739 27.9635C13.4935 28.0856 13.6727 28.1466 13.852 28.1466C14.0611 28.1466 14.2105 28.0856 14.33 27.994C14.4495 27.9024 14.5093 27.7498 14.5093 27.5666Z" fill="white"/>
</svg>
