<svg width="377" height="94" viewBox="0 0 377 94" fill="none" xmlns="http://www.w3.org/2000/svg">
<path d="M0.399477 4.42335C-0.735555 2.45742 0.683237 1.78938e-06 2.9533 1.70225e-06L47.3043 0C49.5744 -8.71281e-08 50.9932 2.45742 49.8582 4.42335L27.6826 42.8325C26.5476 44.7984 23.71 44.7984 22.575 42.8325L0.399477 4.42335Z" fill="#EC1D40"/>
<path d="M147.381 4.42335C148.516 2.45742 147.097 1.78938e-06 144.827 1.70225e-06L100.476 0C98.2059 -8.71281e-08 96.7871 2.45742 97.9222 4.42335L120.098 42.8325C121.233 44.7984 124.07 44.7984 125.205 42.8325L147.381 4.42335Z" fill="#EC1D40"/>
<path d="M57.4308 35.3213C56.3074 33.3554 57.7269 30.9093 59.9911 30.9093H87.8706C90.1348 30.9093 91.5543 33.3554 90.431 35.3213L76.4912 59.7158C75.3592 61.6969 72.5026 61.6969 71.3705 59.7158L57.4308 35.3213Z" fill="#EC1D40"/>
<path d="M55.1725 92.4313L67.5875 70.928C68.0103 70.1956 68.0123 69.2938 67.5928 68.5595L56.9425 49.9216C56.6042 49.3295 56.0723 48.742 55.3903 48.742H29.9484C28.1181 48.742 26.9742 50.7234 27.8893 52.3085L51.0543 92.4313C51.9694 94.0164 54.2573 94.0164 55.1725 92.4313Z" fill="#EC1D40"/>
<path d="M92.6083 92.4313L80.1933 70.928C79.7705 70.1956 79.7685 69.2938 80.188 68.5595L90.8382 49.9216C91.1766 49.3295 91.7084 48.742 92.3905 48.742H117.832C119.663 48.742 120.807 50.7234 119.891 52.3085L96.7265 92.4313C95.8113 94.0164 93.5234 94.0164 92.6083 92.4313Z" fill="#EC1D40"/>
<path d="M170.577 4.71431C171.743 4.21623 173.076 3.78457 174.575 3.41932C176.108 3.05407 177.59 2.87144 179.023 2.87144C181.821 2.87144 183.853 3.48573 185.119 4.71431C186.419 5.90968 187.335 8.21741 187.868 11.6375L192.066 37.3878C192.432 39.5461 192.799 41.8539 193.165 44.311C193.532 46.735 193.865 49.0925 194.165 51.3836C194.465 53.6415 194.681 55.5674 194.814 57.1613C194.881 57.7921 194.981 58.174 195.114 58.3068C195.247 58.4396 195.481 58.5061 195.814 58.5061L204.059 5.06296C205.659 4.79732 207.374 4.61469 209.207 4.51508C211.039 4.38226 212.738 4.31585 214.304 4.31585C215.903 4.31585 217.619 4.38226 219.451 4.51508C221.317 4.61469 222.999 4.79732 224.499 5.06296L232.145 57.1613C232.245 57.8254 232.378 58.2238 232.544 58.3566C232.711 58.4562 232.944 58.5061 233.244 58.5061C233.411 56.6798 233.644 54.5381 233.944 52.0809C234.277 49.6238 234.627 47.1002 234.993 44.5102C235.393 41.8871 235.793 39.4465 236.193 37.1886L241.889 3.76797C243.089 3.53554 244.305 3.38612 245.538 3.31971C246.77 3.22009 247.936 3.17029 249.036 3.17029C250.268 3.17029 251.568 3.2699 252.934 3.46913C254.333 3.63515 255.549 3.88419 256.582 4.21623L257.381 5.21238L244.138 71.705C242.306 71.9042 240.09 72.0702 237.492 72.203C234.927 72.3358 232.594 72.4023 230.496 72.4023C228.13 72.4023 226.031 72.0038 224.199 71.2069C222.4 70.41 221.25 68.4011 220.751 65.1802L217.352 43.6635C216.753 39.7454 216.186 35.6944 215.653 31.5106C215.154 27.3268 214.77 23.6742 214.504 20.553H213.704C213.371 23.6742 212.905 27.3268 212.305 31.5106C211.739 35.6612 211.122 39.7121 210.456 43.6635L205.908 71.705C204.009 71.9042 201.844 72.0702 199.412 72.203C197.013 72.3358 194.731 72.4023 192.566 72.4023C189.967 72.4023 187.768 72.0038 185.969 71.2069C184.203 70.41 183.004 68.4011 182.371 65.1802L170.577 4.71431Z" fill="#17171B"/>
<path d="M295.314 70.4598C294.115 75.0088 292.599 79.01 290.767 82.4633C288.934 85.9498 286.436 88.6726 283.271 90.6317C280.106 92.624 275.941 93.6201 270.777 93.6201C268.778 93.6201 266.596 93.4043 264.231 92.9726C261.865 92.5409 260 92.0761 258.634 91.578C258.434 89.8182 258.65 87.8259 259.283 85.6012C259.916 83.3764 260.749 81.6664 261.782 80.471C262.848 80.8031 264.198 81.1351 265.83 81.4672C267.462 81.8324 269.112 82.015 270.777 82.015C273.309 82.015 275.375 81.3011 276.974 79.8733C278.607 78.4455 279.806 76.4698 280.572 73.9463L280.972 72.5019C278.273 72.4687 276.025 72.0038 274.226 71.1073C272.426 70.2107 271.21 68.5837 270.577 66.2262L258.934 23.2924C260.533 22.5951 262.215 22.0804 263.981 21.7484C265.747 21.3831 267.279 21.2005 268.579 21.2005C270.478 21.2005 272.043 21.6653 273.276 22.5951C274.542 23.5248 275.492 25.2847 276.125 27.8746L280.822 47.0504C281.122 48.1462 281.405 49.5242 281.672 51.1844C281.971 52.8114 282.238 54.4385 282.471 56.0655C282.704 57.6593 282.888 59.0041 283.021 60.0999C283.121 60.5647 283.404 60.7972 283.87 60.7972L292.566 22.1468C293.432 21.9144 294.432 21.7484 295.564 21.6487C296.697 21.5491 297.746 21.4993 298.713 21.4993C300.045 21.4993 301.411 21.5823 302.81 21.7484C304.243 21.8812 305.659 22.18 307.058 22.6449L307.658 23.6908L295.314 70.4598Z" fill="#17171B"/>
<path d="M324.656 42.7172C325.855 41.1233 327.221 39.4797 328.754 37.7863C330.286 36.0596 331.619 34.582 332.752 33.3534L332.452 32.8554C330.586 33.0546 328.504 33.2372 326.205 33.4032C323.906 33.5361 321.841 33.6025 320.008 33.6025H312.312C311.946 32.1083 311.763 30.531 311.763 28.8708C311.763 27.6754 311.846 26.5132 312.013 25.3843C312.179 24.2221 312.379 23.1264 312.612 22.097H347.494C348.127 23.9565 348.61 25.5669 348.943 26.9283C349.31 28.2897 349.493 29.5183 349.493 30.614C349.493 31.3113 349.376 32.0917 349.143 32.955C348.91 33.7851 348.543 34.5322 348.044 35.1963L335.8 51.284C334.667 52.745 333.451 54.289 332.152 55.9161C330.853 57.5099 329.553 58.9543 328.254 60.2493L328.554 60.7474C331.419 60.3489 334.051 60.1497 336.45 60.1497H339.898C341.43 60.1497 343.013 60.0501 344.645 59.8508C346.311 59.6184 347.844 59.1702 349.243 58.5061C349.809 59.8342 350.209 60.9798 350.442 61.9427C350.709 62.8725 350.842 63.8686 350.842 64.9312C350.842 66.9899 350.226 68.6501 348.993 69.9119C347.76 71.1737 345.595 71.8046 342.497 71.8046H312.362C311.729 69.9783 311.28 68.4841 311.013 67.3219C310.747 66.1598 310.613 65.1304 310.613 64.2339C310.613 63.3706 310.78 62.4574 311.113 61.4945C311.446 60.5315 312.013 59.5188 312.812 58.4562L324.656 42.7172Z" fill="#17171B"/>
<path d="M377 71.8046C375.901 72.0038 374.651 72.1532 373.252 72.2528C371.886 72.3524 370.537 72.4023 369.204 72.4023C367.905 72.4023 366.556 72.3524 365.156 72.2528C363.79 72.1532 362.524 72.0038 361.358 71.8046V38.8322C361.358 37.172 361.009 35.794 360.309 34.6982C359.643 33.6025 358.427 33.0546 356.661 33.0546H355.162C354.729 31.4276 354.512 29.6677 354.512 27.775C354.512 26.9117 354.562 25.9986 354.662 25.0356C354.762 24.0395 354.928 23.0932 355.162 22.1966C356.694 22.0306 358.26 21.9144 359.859 21.848C361.492 21.7484 362.858 21.6986 363.957 21.6986H366.106C369.438 21.6986 372.086 22.7777 374.052 24.936C376.017 27.0611 377 29.9499 377 33.6025V71.8046ZM358.36 8.1012C358.36 6.0425 358.743 4.10002 359.509 2.27376C360.376 1.8421 361.492 1.47684 362.858 1.178C364.257 0.879157 365.623 0.729736 366.955 0.729736C368.288 0.729736 369.671 0.879157 371.103 1.178C372.536 1.47684 373.635 1.8421 374.402 2.27376C374.768 3.20349 375.051 4.18303 375.251 5.21238C375.451 6.24173 375.551 7.20467 375.551 8.1012C375.551 10.1267 375.168 12.0526 374.402 13.8788C373.635 14.3105 372.536 14.6757 371.103 14.9746C369.671 15.2734 368.288 15.4228 366.955 15.4228C365.623 15.4228 364.24 15.29 362.808 15.0244C361.408 14.7255 360.309 14.3437 359.509 13.8788C358.743 12.0526 358.36 10.1267 358.36 8.1012Z" fill="#17171B"/>
</svg>
