<svg width="802" height="200" viewBox="0 0 802 200" fill="none" xmlns="http://www.w3.org/2000/svg">
<path d="M0.849816 9.40988C-1.56476 5.22771 1.45346 3.80659e-06 6.28262 3.62124e-06L100.632 0C105.461 -1.8535e-07 108.479 5.22772 106.064 9.40989L58.8899 91.1185C56.4753 95.3006 50.4389 95.3006 48.0243 91.1184L0.849816 9.40988Z" fill="white"/>
<path d="M313.526 9.40988C315.941 5.22771 312.923 3.80659e-06 308.094 3.62124e-06L213.745 0C208.916 -1.8535e-07 205.897 5.22772 208.312 9.40989L255.486 91.1185C257.901 95.3006 263.937 95.3006 266.352 91.1184L313.526 9.40988Z" fill="white"/>
<path d="M122.174 75.1397C119.784 70.9576 122.804 65.7541 127.62 65.7541H186.929C191.746 65.7541 194.766 70.9576 192.376 75.1397L162.721 127.035C160.313 131.249 154.236 131.249 151.828 127.035L122.174 75.1397Z" fill="white"/>
<path d="M117.37 196.631L143.78 150.887C144.68 149.329 144.684 147.41 143.792 145.848L121.135 106.199C120.415 104.94 119.284 103.69 117.833 103.69H63.71C59.8163 103.69 57.3827 107.905 59.3296 111.277L108.609 196.631C110.556 200.003 115.423 200.003 117.37 196.631Z" fill="white"/>
<path d="M197.008 196.631L170.597 150.887C169.697 149.329 169.693 147.41 170.586 145.848L193.242 106.199C193.962 104.94 195.093 103.69 196.544 103.69H250.667C254.561 103.69 256.994 107.905 255.048 111.277L205.768 196.631C203.822 200.003 198.954 200.003 197.008 196.631Z" fill="white"/>
<path d="M362.872 10.0287C365.353 8.96914 368.188 8.05086 371.377 7.27385C374.637 6.49684 377.791 6.10833 380.838 6.10833C386.792 6.10833 391.115 7.41512 393.808 10.0287C396.572 12.5716 398.521 17.4809 399.655 24.7566L408.585 79.5357C409.365 84.1272 410.145 89.0365 410.924 94.2636C411.704 99.4201 412.413 104.435 413.05 109.309C413.688 114.113 414.149 118.21 414.432 121.6C414.574 122.942 414.787 123.755 415.07 124.037C415.354 124.32 415.85 124.461 416.559 124.461L434.1 10.7704C437.502 10.2053 441.152 9.81679 445.05 9.60488C448.948 9.32233 452.562 9.18106 455.893 9.18106C459.295 9.18106 462.945 9.32233 466.843 9.60488C470.812 9.81679 474.391 10.2053 477.58 10.7704L493.846 121.6C494.059 123.013 494.342 123.861 494.696 124.143C495.051 124.355 495.547 124.461 496.185 124.461C496.539 120.576 497.035 116.02 497.673 110.793C498.382 105.566 499.126 100.197 499.906 94.6874C500.756 89.1071 501.607 83.9153 502.457 79.1119L514.576 8.01554C517.128 7.52108 519.715 7.20321 522.337 7.06193C524.959 6.85003 527.44 6.74407 529.779 6.74407C532.401 6.74407 535.165 6.95598 538.071 7.3798C541.048 7.73299 543.634 8.26277 545.831 8.96914L547.532 11.0883L519.36 152.539C515.462 152.963 510.749 153.316 505.221 153.599C499.764 153.881 494.803 154.023 490.338 154.023C485.306 154.023 480.841 153.175 476.943 151.48C473.115 149.784 470.67 145.511 469.607 138.659L462.378 92.8862C461.102 84.551 459.898 75.9332 458.764 67.033C457.701 58.1327 456.885 50.3626 456.319 43.7227H454.618C453.909 50.3626 452.917 58.1327 451.641 67.033C450.436 75.8626 449.125 84.4804 447.707 92.8862L438.033 152.539C433.993 152.963 429.387 153.316 424.213 153.599C419.11 153.881 414.255 154.023 409.648 154.023C404.12 154.023 399.443 153.175 395.616 151.48C391.859 149.784 389.308 145.511 387.961 138.659L362.872 10.0287Z" fill="white"/>
<path d="M628.228 149.89C625.677 159.568 622.452 168.08 618.554 175.426C614.656 182.843 609.341 188.635 602.608 192.803C595.875 197.041 587.015 199.16 576.03 199.16C571.778 199.16 567.136 198.701 562.104 197.782C557.072 196.864 553.103 195.875 550.197 194.816C549.772 191.072 550.232 186.834 551.579 182.101C552.925 177.368 554.697 173.731 556.894 171.188C559.162 171.894 562.033 172.6 565.505 173.307C568.978 174.084 572.486 174.472 576.03 174.472C581.417 174.472 585.811 172.953 589.213 169.916C592.685 166.879 595.237 162.676 596.867 157.307L597.717 154.235C591.977 154.164 587.193 153.175 583.366 151.268C579.538 149.361 576.951 145.899 575.605 140.884L550.835 49.5502C554.237 48.0669 557.816 46.972 561.572 46.2656C565.328 45.4886 568.588 45.1001 571.352 45.1001C575.392 45.1001 578.723 46.089 581.346 48.0669C584.039 50.0447 586.059 53.7885 587.405 59.2982L597.398 100.091C598.036 102.422 598.639 105.354 599.206 108.886C599.844 112.347 600.411 115.808 600.907 119.269C601.403 122.66 601.793 125.521 602.076 127.852C602.289 128.841 602.891 129.335 603.883 129.335L622.381 47.1133C624.224 46.6188 626.35 46.2656 628.76 46.0537C631.17 45.8418 633.402 45.7358 635.457 45.7358C638.292 45.7358 641.198 45.9124 644.175 46.2656C647.222 46.5482 650.234 47.1839 653.211 48.1728L654.487 50.3979L628.228 149.89Z" fill="white"/>
<path d="M690.647 90.873C693.199 87.4824 696.104 83.9859 699.365 80.3834C702.625 76.7103 705.46 73.5669 707.869 70.9533L707.232 69.8938C703.263 70.3176 698.833 70.7061 693.943 71.0593C689.053 71.3418 684.658 71.4831 680.76 71.4831H664.389C663.609 68.3044 663.219 64.9492 663.219 61.4173C663.219 58.8744 663.396 56.4021 663.751 54.0004C664.105 51.5281 664.53 49.1971 665.026 47.0073H739.231C740.577 50.963 741.605 54.3889 742.314 57.285C743.093 60.1811 743.483 62.7947 743.483 65.1258C743.483 66.6091 743.235 68.2691 742.739 70.1057C742.243 71.8716 741.463 73.4609 740.4 74.8737L714.354 109.097C711.945 112.205 709.358 115.49 706.594 118.951C703.83 122.342 701.066 125.415 698.301 128.169L698.939 129.229C705.034 128.381 710.633 127.958 715.736 127.958H723.072C726.332 127.958 729.698 127.746 733.171 127.322C736.715 126.827 739.975 125.874 742.952 124.461C744.157 127.287 745.007 129.724 745.503 131.772C746.07 133.75 746.354 135.869 746.354 138.129C746.354 142.509 745.042 146.041 742.42 148.725C739.798 151.409 735.191 152.751 728.6 152.751H664.495C663.148 148.866 662.192 145.688 661.625 143.215C661.058 140.743 660.774 138.553 660.774 136.646C660.774 134.809 661.128 132.867 661.837 130.818C662.546 128.77 663.751 126.615 665.452 124.355L690.647 90.873Z" fill="white"/>
<path d="M802 152.751C799.661 153.175 797.004 153.493 794.027 153.705C791.121 153.917 788.251 154.023 785.416 154.023C782.652 154.023 779.781 153.917 776.805 153.705C773.899 153.493 771.206 153.175 768.725 152.751V82.6085C768.725 79.0766 767.981 76.1452 766.493 73.8141C765.075 71.4831 762.488 70.3176 758.732 70.3176H755.543C754.621 66.8564 754.161 63.1126 754.161 59.0863C754.161 57.2497 754.267 55.3072 754.48 53.2587C754.692 51.1396 755.047 49.1264 755.543 47.2192C758.803 46.866 762.134 46.6188 765.536 46.4775C769.009 46.2656 771.914 46.1596 774.253 46.1596H778.825C785.912 46.1596 791.546 48.4554 795.728 53.0468C799.909 57.5676 802 63.713 802 71.4831V152.751ZM762.347 17.2337C762.347 12.8542 763.162 8.72191 764.792 4.83687C766.634 3.91858 769.009 3.14157 771.914 2.50583C774.891 1.8701 777.797 1.55223 780.632 1.55223C783.467 1.55223 786.408 1.8701 789.456 2.50583C792.503 3.14157 794.842 3.91858 796.472 4.83687C797.252 6.81471 797.854 8.89851 798.279 11.0883C798.705 13.278 798.917 15.3265 798.917 17.2337C798.917 21.5426 798.102 25.6395 796.472 29.5246C794.842 30.4429 792.503 31.2199 789.456 31.8556C786.408 32.4913 783.467 32.8092 780.632 32.8092C777.797 32.8092 774.856 32.5267 771.808 31.9616C768.831 31.3258 766.493 30.5135 764.792 29.5246C763.162 25.6395 762.347 21.5426 762.347 17.2337Z" fill="white"/>
</svg>
